<svg width="144" height="38" viewBox="0 0 144 38" xmlns="http://www.w3.org/2000/svg"><path d="M0 5.60311C0 2.5086 2.5086 0 5.60311 0H32.498C35.5926 0 38.1012 2.5086 38.1012 5.60311V32.498C38.1012 35.5926 35.5926 38.1012 32.498 38.1012H5.60311C2.5086 38.1012 0 35.5926 0 32.498V5.60311Z" fill="#A129FF"/><path d="M14.2189 33.6186L14.2132 33.6179L13.8691 33.6033C13.0499 33.4861 12.3659 32.7995 12.3659 31.8868V28.073H11.3103C8.75639 28.073 6.73593 26.0819 6.73593 23.5651L6.73523 21.7986L6.44177 21.7702C4.98361 21.4844 3.92236 20.2465 3.92236 18.711V16.6304C3.92236 15.0963 4.98361 13.8583 6.44177 13.5726L6.73664 13.5441V12.4685C6.73664 9.95235 8.75709 7.96051 11.311 7.96051H17.9973V6.57482H16.2513C15.6686 6.57482 15.1957 6.10876 15.1957 5.53452C15.1957 4.96096 15.6686 4.49421 16.2513 4.49421H18.8924C18.9452 4.48658 18.9987 4.48242 19.0529 4.48242C19.1064 4.48242 19.1598 4.48728 19.2112 4.49421H21.8622C22.4442 4.49421 22.9178 4.96096 22.9178 5.53452C22.9178 6.10876 22.4442 6.57482 21.8622 6.57482H20.1085V7.9612H26.792C29.3451 7.9612 31.3663 9.95304 31.3663 12.4692L31.3656 13.5448L31.6591 13.5733C33.1165 13.859 34.1792 15.097 34.1792 16.6311V18.7117C34.1792 20.2465 33.1158 21.4851 31.6591 21.7709L31.3663 21.7993V23.5658C31.3663 26.0826 29.3451 28.0737 26.792 28.0737H22.2176L15.1696 33.2829C14.879 33.4868 14.5581 33.5992 14.2189 33.6186ZM21.2246 22.7599C21.8826 22.4443 22.5132 21.9366 22.8397 21.1959C23.0727 20.6688 22.8264 20.0558 22.2929 19.8276C21.7581 19.598 21.136 19.8408 20.9044 20.3665C20.8376 20.5163 20.6588 20.7167 20.302 20.888C19.9502 21.0572 19.5033 21.1571 19.055 21.1571C18.6067 21.1571 18.1598 21.0572 17.808 20.888C17.4533 20.7181 17.2724 20.5184 17.2055 20.3665C16.974 19.8401 16.3519 19.598 15.8171 19.8276C15.2829 20.0558 15.0373 20.6688 15.2702 21.1959C15.5968 21.9373 16.2302 22.445 16.8853 22.7599C17.5448 23.0761 18.3104 23.2377 19.0557 23.2377C19.7981 23.2377 20.5638 23.0761 21.2246 22.7599ZM16.5891 15.5908C16.5891 14.8279 15.9557 14.2037 15.1816 14.2037C14.4075 14.2037 13.7741 14.8279 13.7741 15.5908C13.7741 16.3537 14.4075 16.9778 15.1816 16.9778C15.9557 16.9778 16.5891 16.3537 16.5891 15.5908ZM24.3246 15.5908C24.3246 14.8279 23.6913 14.2037 22.9171 14.2037C22.143 14.2037 21.5096 14.8279 21.5096 15.5908C21.5096 16.3537 22.143 16.9778 22.9171 16.9778C23.6913 16.9778 24.3246 16.3537 24.3246 15.5908Z" fill="white"/><path d="M141.434 5.82812H144V32.2722H141.434V5.82812Z" fill="#A129FF"/><path d="M139.736 32.1945V32.2723H137.053L134.253 26.2057H119.786L116.987 32.2723H114.303V32.1945L126.592 5.63379H127.447L139.736 32.1945ZM127.02 10.1449C126.709 10.9486 126.216 12.1282 125.542 13.6837L120.875 23.8724H133.203L128.497 13.6837C127.823 12.1282 127.331 10.9486 127.02 10.1449Z" fill="#A129FF"/><path d="M108.876 32.1945V32.2723H106.193L103.393 26.2057H88.9266L86.1267 32.2723H83.4434V32.1945L95.7321 5.63379H96.5876L108.876 32.1945ZM96.1598 10.1449C95.8487 10.9486 95.3561 12.1282 94.6821 13.6837L90.0155 23.8724H102.343L97.6376 13.6837C96.9635 12.1282 96.4709 10.9486 96.1598 10.1449Z" fill="white"/><path d="M91.0028 5.82812V5.9059L78.7141 32.4666H77.8585L65.5698 5.9059V5.82812H68.2531L76.8474 24.4945C77.5733 26.076 78.053 27.1908 78.2863 27.8389C78.5715 27.0871 79.0641 25.9334 79.764 24.3779L88.2417 5.82812H91.0028Z" fill="white"/><path d="M64.8857 29.9389V32.2722H48.7471V5.82812H64.5357V8.16142H51.3137V17.5724H62.9413V19.8668H51.3137V29.9389H64.8857Z" fill="white"/></svg>