<svg width="38" height="38" viewBox="0 0 38 38" fill="none" xmlns="http://www.w3.org/2000/svg"><path d="M0 5.58823C0 2.50194 2.50194 0 5.58823 0H32.4117C35.4981 0 38 2.50194 38 5.58823V32.4117C38 35.4981 35.4981 38 32.4117 38H5.58823C2.50194 38 0 35.4981 0 32.4117V5.58823Z" fill="white"/><path d="M14.2184 33.6186L14.2127 33.6179L13.8686 33.6033C13.0494 33.4861 12.3654 32.7995 12.3654 31.8868V28.073H11.3098C8.7559 28.073 6.73545 26.0819 6.73545 23.5651L6.73475 21.7986L6.44129 21.7702C4.98313 21.4844 3.92188 20.2465 3.92188 18.711V16.6304C3.92188 15.0963 4.98313 13.8583 6.44129 13.5726L6.73616 13.5441V12.4685C6.73616 9.95235 8.7566 7.96051 11.3105 7.96051H17.9968V6.57482H16.2508C15.6681 6.57482 15.1952 6.10876 15.1952 5.53452C15.1952 4.96096 15.6681 4.49421 16.2508 4.49421H18.8919C18.9447 4.48658 18.9982 4.48242 19.0524 4.48242C19.1059 4.48242 19.1593 4.48728 19.2107 4.49421H21.8617C22.4437 4.49421 22.9173 4.96096 22.9173 5.53452C22.9173 6.10876 22.4437 6.57482 21.8617 6.57482H20.108V7.9612H26.7915C29.3446 7.9612 31.3658 9.95304 31.3658 12.4692L31.3651 13.5448L31.6586 13.5733C33.116 13.859 34.1787 15.097 34.1787 16.6311V18.7117C34.1787 20.2465 33.1153 21.4851 31.6586 21.7709L31.3658 21.7993V23.5658C31.3658 26.0826 29.3446 28.0737 26.7915 28.0737H22.2171L15.1691 33.2829C14.8785 33.4868 14.5576 33.5992 14.2184 33.6186ZM21.2241 22.7599C21.8821 22.4443 22.5127 21.9366 22.8392 21.1959C23.0722 20.6688 22.8259 20.0558 22.2924 19.8276C21.7576 19.598 21.1355 19.8408 20.9039 20.3665C20.8371 20.5163 20.6583 20.7167 20.3015 20.888C19.9497 21.0572 19.5028 21.1571 19.0545 21.1571C18.6062 21.1571 18.1593 21.0572 17.8075 20.888C17.4528 20.7181 17.2719 20.5184 17.205 20.3665C16.9735 19.8401 16.3514 19.598 15.8166 19.8276C15.2824 20.0558 15.0368 20.6688 15.2697 21.1959C15.5963 21.9373 16.2297 22.445 16.8848 22.7599C17.5443 23.0761 18.3099 23.2377 19.0552 23.2377C19.7976 23.2377 20.5633 23.0761 21.2241 22.7599ZM16.5886 15.5908C16.5886 14.8279 15.9552 14.2037 15.1811 14.2037C14.407 14.2037 13.7736 14.8279 13.7736 15.5908C13.7736 16.3537 14.407 16.9778 15.1811 16.9778C15.9552 16.9778 16.5886 16.3537 16.5886 15.5908ZM24.3241 15.5908C24.3241 14.8279 23.6908 14.2037 22.9166 14.2037C22.1425 14.2037 21.5091 14.8279 21.5091 15.5908C21.5091 16.3537 22.1425 16.9778 22.9166 16.9778C23.6908 16.9778 24.3241 16.3537 24.3241 15.5908Z" fill="#A129FF"/></svg>